<svg xmlns="http://www.w3.org/2000/svg" xmlns:xlink="http://www.w3.org/1999/xlink" width="1366" zoomAndPan="magnify" viewBox="0 0 1024.5 576" height="768" preserveAspectRatio="xMidYMid meet" version="1.0"><defs><g/><clipPath id="affb32dc49"><path d="M 377.445312 230.074219 L 480 230.074219 L 480 296 L 377.445312 296 Z M 377.445312 230.074219 " clip-rule="nonzero"/></clipPath><clipPath id="06e91436b4"><path d="M 418 230.074219 L 470 230.074219 L 470 273 L 418 273 Z M 418 230.074219 " clip-rule="nonzero"/></clipPath><clipPath id="db88ef6db6"><rect x="0" width="179" y="0" height="123"/></clipPath><clipPath id="0d2de34836"><rect x="0" width="358" y="0" height="46"/></clipPath></defs><g fill="#000000" fill-opacity="1"><g transform="translate(966.428253, 537.278347)"><g><path d="M 1.015625 0 L 1.015625 -1.390625 L 4.90625 -1.390625 L 4.90625 -12.296875 L 4.6875 -12.359375 C 4.050781 -12.046875 3.492188 -11.804688 3.015625 -11.640625 C 2.546875 -11.472656 1.941406 -11.3125 1.203125 -11.15625 L 1.203125 -12.6875 C 1.929688 -12.84375 2.65625 -13.054688 3.375 -13.328125 C 4.09375 -13.597656 4.75 -13.910156 5.34375 -14.265625 L 6.546875 -14.265625 L 6.546875 -1.390625 L 10.03125 -1.390625 L 10.03125 0 Z M 1.015625 0 "/></g></g></g><g fill="#000000" fill-opacity="1"><g transform="translate(977.063436, 537.278347)"><g><path d="M 0.859375 -0.65625 C 0.859375 -1.4375 0.941406 -2.066406 1.109375 -2.546875 C 1.285156 -3.035156 1.582031 -3.488281 2 -3.90625 C 2.414062 -4.320312 3.078125 -4.859375 3.984375 -5.515625 L 5.5625 -6.671875 C 6.144531 -7.085938 6.613281 -7.472656 6.96875 -7.828125 C 7.332031 -8.191406 7.617188 -8.582031 7.828125 -9 C 8.046875 -9.414062 8.15625 -9.882812 8.15625 -10.40625 C 8.15625 -11.257812 7.929688 -11.898438 7.484375 -12.328125 C 7.035156 -12.753906 6.332031 -12.96875 5.375 -12.96875 C 4.625 -12.96875 3.953125 -12.789062 3.359375 -12.4375 C 2.773438 -12.09375 2.3125 -11.597656 1.96875 -10.953125 L 1.734375 -10.90625 L 0.734375 -11.96875 C 1.210938 -12.75 1.84375 -13.359375 2.625 -13.796875 C 3.414062 -14.242188 4.332031 -14.46875 5.375 -14.46875 C 6.394531 -14.46875 7.238281 -14.296875 7.90625 -13.953125 C 8.570312 -13.609375 9.0625 -13.128906 9.375 -12.515625 C 9.695312 -11.910156 9.859375 -11.207031 9.859375 -10.40625 C 9.859375 -9.769531 9.722656 -9.175781 9.453125 -8.625 C 9.191406 -8.070312 8.816406 -7.550781 8.328125 -7.0625 C 7.835938 -6.570312 7.226562 -6.054688 6.5 -5.515625 L 4.90625 -4.359375 C 4.3125 -3.921875 3.851562 -3.550781 3.53125 -3.25 C 3.21875 -2.945312 2.988281 -2.648438 2.84375 -2.359375 C 2.695312 -2.066406 2.625 -1.742188 2.625 -1.390625 L 9.859375 -1.390625 L 9.859375 0 L 0.859375 0 Z M 0.859375 -0.65625 "/></g></g></g><g clip-path="url(#affb32dc49)"><path fill="#ff0000" d="M 473.460938 285.355469 C 473.460938 286.527344 472.507812 287.480469 471.335938 287.480469 L 469.210938 287.480469 C 469.210938 285.929688 468.789062 284.480469 468.0625 283.226562 L 473.460938 283.226562 Z M 464.382812 289.605469 C 463.644531 290.875 462.273438 291.730469 460.703125 291.730469 C 459.136719 291.730469 457.769531 290.875 457.03125 289.605469 C 456.664062 288.980469 456.453125 288.257812 456.453125 287.480469 C 456.453125 285.132812 458.359375 283.226562 460.703125 283.226562 C 463.050781 283.226562 464.957031 285.132812 464.957031 287.480469 C 464.957031 288.257812 464.746094 288.980469 464.382812 289.605469 Z M 451.625 289.605469 C 450.890625 290.875 449.519531 291.730469 447.949219 291.730469 C 446.382812 291.730469 445.007812 290.875 444.273438 289.605469 C 443.910156 288.980469 443.699219 288.257812 443.699219 287.480469 C 443.699219 285.132812 445.605469 283.226562 447.949219 283.226562 C 450.296875 283.226562 452.203125 285.132812 452.203125 287.480469 C 452.203125 288.257812 451.992188 288.980469 451.625 289.605469 Z M 439.445312 287.480469 L 403.300781 287.480469 C 403.300781 285.929688 402.882812 284.480469 402.15625 283.226562 L 440.59375 283.226562 C 439.867188 284.480469 439.445312 285.929688 439.445312 287.480469 Z M 403.300781 249.214844 L 407.554688 249.214844 L 407.554688 278.976562 L 403.300781 278.976562 Z M 399.050781 278.976562 L 382.042969 278.976562 L 382.042969 270.472656 L 392.675781 270.472656 C 393.847656 270.472656 394.800781 269.523438 394.800781 268.347656 L 394.800781 255.589844 C 394.800781 254.417969 393.847656 253.464844 392.675781 253.464844 L 382.042969 253.464844 C 382.042969 251.121094 383.949219 249.214844 386.296875 249.214844 L 399.050781 249.214844 Z M 398.476562 289.605469 C 397.742188 290.875 396.367188 291.730469 394.800781 291.730469 C 393.230469 291.730469 391.859375 290.875 391.125 289.605469 C 390.757812 288.980469 390.546875 288.257812 390.546875 287.480469 C 390.546875 285.132812 392.453125 283.226562 394.800781 283.226562 C 397.144531 283.226562 399.050781 285.132812 399.050781 287.480469 C 399.050781 288.257812 398.839844 288.980469 398.476562 289.605469 Z M 386.296875 287.480469 L 384.171875 287.480469 C 382.996094 287.480469 382.042969 286.527344 382.042969 285.355469 L 382.042969 283.226562 L 387.449219 283.226562 C 386.71875 284.480469 386.296875 285.929688 386.296875 287.480469 Z M 382.042969 257.71875 L 390.546875 257.71875 L 390.546875 266.222656 L 382.042969 266.222656 Z M 477.710938 230.078125 L 469.210938 230.078125 C 468.035156 230.078125 467.082031 231.027344 467.082031 232.203125 C 467.082031 233.378906 468.035156 234.328125 469.210938 234.328125 L 475.585938 234.328125 L 475.585938 278.976562 L 411.8125 278.976562 L 411.8125 234.328125 L 420.308594 234.328125 C 421.484375 234.328125 422.433594 233.378906 422.433594 232.203125 C 422.433594 231.027344 421.484375 230.078125 420.308594 230.078125 L 409.679688 230.078125 C 408.507812 230.078125 407.554688 231.027344 407.554688 232.203125 L 407.554688 244.957031 L 386.296875 244.957031 C 381.609375 244.957031 377.792969 248.773438 377.792969 253.464844 L 377.792969 285.355469 C 377.792969 288.871094 380.652344 291.730469 384.171875 291.730469 L 387.449219 291.730469 C 388.921875 294.269531 391.660156 295.984375 394.800781 295.984375 C 397.941406 295.984375 400.683594 294.269531 402.15625 291.730469 L 440.59375 291.730469 C 442.066406 294.269531 444.8125 295.984375 447.949219 295.984375 C 450.492188 295.984375 452.765625 294.859375 454.328125 293.085938 C 455.886719 294.859375 458.167969 295.984375 460.703125 295.984375 C 463.847656 295.984375 466.589844 294.269531 468.0625 291.730469 L 471.335938 291.730469 C 474.851562 291.730469 477.710938 288.871094 477.710938 285.355469 L 477.710938 283.226562 C 478.886719 283.226562 479.835938 282.277344 479.835938 281.101562 L 479.835938 232.203125 C 479.835938 231.027344 478.886719 230.078125 477.710938 230.078125 " fill-opacity="1" fill-rule="nonzero"/></g><g clip-path="url(#06e91436b4)"><path fill="#ff0000" d="M 422.433594 248.152344 C 422.433594 246.390625 423.867188 244.957031 425.628906 244.957031 C 426.003906 244.957031 426.355469 245.039062 426.691406 245.15625 C 427.925781 245.597656 428.816406 246.765625 428.816406 248.152344 L 428.816406 268.347656 L 422.433594 268.347656 Z M 430.945312 238.585938 C 430.945312 236.238281 432.847656 234.328125 435.195312 234.328125 L 452.203125 234.328125 C 454.546875 234.328125 456.453125 236.238281 456.453125 238.585938 L 456.453125 242.953125 C 455.144531 244.296875 454.328125 246.128906 454.328125 248.152344 L 454.328125 251.339844 L 433.070312 251.339844 L 433.070312 248.152344 C 433.070312 246.128906 432.253906 244.296875 430.945312 242.953125 Z M 454.328125 259.84375 L 433.070312 259.84375 L 433.070312 255.589844 L 454.328125 255.589844 Z M 454.328125 268.347656 L 433.070312 268.347656 L 433.070312 264.09375 L 454.328125 264.09375 Z M 458.578125 261.96875 L 458.578125 248.152344 C 458.578125 246.765625 459.472656 245.597656 460.703125 245.15625 C 461.039062 245.039062 461.394531 244.957031 461.769531 244.957031 C 463.53125 244.957031 464.957031 246.390625 464.957031 248.152344 L 464.957031 268.347656 L 458.578125 268.347656 Z M 418.183594 248.152344 L 418.183594 270.472656 C 418.183594 271.648438 419.140625 272.597656 420.308594 272.597656 L 467.082031 272.597656 C 468.257812 272.597656 469.210938 271.648438 469.210938 270.472656 L 469.210938 248.152344 C 469.210938 244.042969 465.871094 240.707031 461.769531 240.707031 C 461.410156 240.707031 461.054688 240.742188 460.703125 240.792969 L 460.703125 238.585938 C 460.703125 236.039062 459.582031 233.765625 457.808594 232.203125 C 456.308594 230.886719 454.351562 230.078125 452.203125 230.078125 L 435.195312 230.078125 C 433.042969 230.078125 431.085938 230.886719 429.585938 232.203125 C 427.816406 233.765625 426.691406 236.039062 426.691406 238.585938 L 426.691406 240.792969 C 426.34375 240.742188 425.988281 240.707031 425.628906 240.707031 C 421.527344 240.707031 418.183594 244.042969 418.183594 248.152344 " fill-opacity="1" fill-rule="nonzero"/></g><g transform="matrix(1, 0, 0, 1, 507, 201)"><g clip-path="url(#db88ef6db6)"><g fill="#ff0000" fill-opacity="1"><g transform="translate(0.88767, 94.038016)"><g><path d="M 6.140625 0 L 6.140625 -66.4375 L 15.90625 -66.4375 L 33.421875 -4.9375 L 33.828125 -4.9375 L 51.34375 -66.4375 L 60.90625 -66.4375 L 60.90625 0 L 55.265625 0 L 55.375 -60.90625 L 55.0625 -60.90625 L 37.546875 0 L 29.5 0 L 12.078125 -61 L 11.671875 -61 L 11.78125 0 Z M 6.140625 0 "/></g></g></g><g fill="#ff0000" fill-opacity="1"><g transform="translate(67.932175, 94.038016)"><g><path d="M 18.015625 0 L 18.015625 -66.4375 L 23.765625 -66.4375 L 23.765625 0 Z M 1.71875 -61.109375 L 1.71875 -66.4375 L 40.0625 -66.4375 L 40.0625 -61.109375 Z M 1.71875 -61.109375 "/></g></g></g><g fill="#ff0000" fill-opacity="1"><g transform="translate(109.709152, 94.038016)"><g><path d="M 6.140625 0 L 6.140625 -66.4375 L 15.90625 -66.4375 L 33.421875 -4.9375 L 33.828125 -4.9375 L 51.34375 -66.4375 L 60.90625 -66.4375 L 60.90625 0 L 55.265625 0 L 55.375 -60.90625 L 55.0625 -60.90625 L 37.546875 0 L 29.5 0 L 12.078125 -61 L 11.671875 -61 L 11.78125 0 Z M 6.140625 0 "/></g></g></g></g></g><path stroke-linecap="butt" transform="matrix(0, -0.749634, 0.749634, 0, 495.365204, 299.266423)" fill="none" stroke-linejoin="miter" d="M 0.0010651 3.499144 L 127.969744 3.499144 " stroke="#ff0000" stroke-width="7" stroke-opacity="1" stroke-miterlimit="4"/><g transform="matrix(1, 0, 0, 1, 348, 300)"><g clip-path="url(#0d2de34836)"><g fill="#ff0000" fill-opacity="1"><g transform="translate(1.063457, 33.393278)"><g><path d="M 2.015625 0 L 2.015625 -24.546875 L 7.40625 -24.546875 L 13.0625 -3.3125 L 13.203125 -3.3125 L 18.78125 -24.546875 L 24 -24.546875 L 24 0 L 20.796875 0 L 20.875 -21.28125 L 20.71875 -21.28125 L 14.875 0 L 11.125 0 L 5.3125 -21.3125 L 5.171875 -21.3125 L 5.25 0 Z M 2.015625 0 "/></g></g></g><g fill="#ff0000" fill-opacity="1"><g transform="translate(27.058663, 33.393278)"><g><path d="M 8.703125 0.453125 C 7.140625 0.453125 5.800781 0.0664062 4.6875 -0.703125 C 3.570312 -1.472656 2.71875 -2.613281 2.125 -4.125 C 1.53125 -5.644531 1.234375 -7.503906 1.234375 -9.703125 C 1.234375 -11.984375 1.535156 -13.875 2.140625 -15.375 C 2.742188 -16.882812 3.601562 -18.007812 4.71875 -18.75 C 5.84375 -19.488281 7.160156 -19.859375 8.671875 -19.859375 C 10.203125 -19.859375 11.523438 -19.488281 12.640625 -18.75 C 13.765625 -18.007812 14.625 -16.878906 15.21875 -15.359375 C 15.8125 -13.847656 16.109375 -11.960938 16.109375 -9.703125 C 16.109375 -7.421875 15.8125 -5.53125 15.21875 -4.03125 C 14.625 -2.53125 13.765625 -1.40625 12.640625 -0.65625 C 11.523438 0.0820312 10.210938 0.453125 8.703125 0.453125 Z M 8.75 -2.3125 C 9.363281 -2.3125 9.910156 -2.460938 10.390625 -2.765625 C 10.878906 -3.078125 11.296875 -3.535156 11.640625 -4.140625 C 11.992188 -4.753906 12.257812 -5.519531 12.4375 -6.4375 C 12.625 -7.351562 12.71875 -8.421875 12.71875 -9.640625 C 12.71875 -10.921875 12.617188 -12.03125 12.421875 -12.96875 C 12.222656 -13.914062 11.941406 -14.691406 11.578125 -15.296875 C 11.222656 -15.910156 10.796875 -16.359375 10.296875 -16.640625 C 9.804688 -16.929688 9.25 -17.078125 8.625 -17.078125 C 8.03125 -17.078125 7.488281 -16.929688 7 -16.640625 C 6.519531 -16.359375 6.097656 -15.921875 5.734375 -15.328125 C 5.378906 -14.734375 5.101562 -13.976562 4.90625 -13.0625 C 4.707031 -12.144531 4.609375 -11.039062 4.609375 -9.75 C 4.609375 -8.53125 4.703125 -7.457031 4.890625 -6.53125 C 5.078125 -5.601562 5.347656 -4.828125 5.703125 -4.203125 C 6.066406 -3.585938 6.503906 -3.117188 7.015625 -2.796875 C 7.523438 -2.472656 8.101562 -2.3125 8.75 -2.3125 Z M 11.5625 -22.015625 C 10.945312 -22.015625 10.46875 -22.144531 10.125 -22.40625 C 9.789062 -22.664062 9.625 -23.09375 9.625 -23.6875 C 9.625 -24.3125 9.796875 -24.757812 10.140625 -25.03125 C 10.492188 -25.300781 10.96875 -25.4375 11.5625 -25.4375 C 12.1875 -25.4375 12.664062 -25.300781 13 -25.03125 C 13.332031 -24.757812 13.5 -24.3125 13.5 -23.6875 C 13.5 -23.09375 13.332031 -22.664062 13 -22.40625 C 12.664062 -22.144531 12.1875 -22.015625 11.5625 -22.015625 Z M 5.71875 -22.015625 C 5.125 -22.015625 4.65625 -22.144531 4.3125 -22.40625 C 3.96875 -22.664062 3.796875 -23.109375 3.796875 -23.734375 C 3.796875 -24.328125 3.96875 -24.757812 4.3125 -25.03125 C 4.65625 -25.300781 5.125 -25.4375 5.71875 -25.4375 C 6.34375 -25.4375 6.820312 -25.300781 7.15625 -25.03125 C 7.488281 -24.757812 7.65625 -24.3125 7.65625 -23.6875 C 7.65625 -23.09375 7.488281 -22.664062 7.15625 -22.40625 C 6.820312 -22.144531 6.34375 -22.015625 5.71875 -22.015625 Z M 5.71875 -22.015625 "/></g></g></g><g fill="#ff0000" fill-opacity="1"><g transform="translate(44.388791, 33.393278)"><g><path d="M 10.125 0.453125 C 9.175781 0.453125 8.351562 0.210938 7.65625 -0.265625 C 6.96875 -0.753906 6.394531 -1.46875 5.9375 -2.40625 C 5.476562 -3.351562 5.132812 -4.523438 4.90625 -5.921875 L 4.5 -5.921875 L 4.84375 0 L 1.78125 0 L 1.859375 -9.34375 L 1.828125 -25.515625 L 5.203125 -25.515625 L 5.203125 -20.6875 C 5.203125 -20.09375 5.171875 -19.390625 5.109375 -18.578125 C 5.046875 -17.773438 4.957031 -16.914062 4.84375 -16 C 4.738281 -15.082031 4.613281 -14.113281 4.46875 -13.09375 L 4.90625 -13.09375 C 5.132812 -14.53125 5.460938 -15.75 5.890625 -16.75 C 6.328125 -17.757812 6.90625 -18.53125 7.625 -19.0625 C 8.34375 -19.59375 9.195312 -19.859375 10.1875 -19.859375 C 11.40625 -19.859375 12.457031 -19.46875 13.34375 -18.6875 C 14.238281 -17.90625 14.9375 -16.757812 15.4375 -15.25 C 15.9375 -13.738281 16.1875 -11.878906 16.1875 -9.671875 C 16.1875 -7.390625 15.925781 -5.503906 15.40625 -4.015625 C 14.882812 -2.523438 14.164062 -1.40625 13.25 -0.65625 C 12.332031 0.0820312 11.289062 0.453125 10.125 0.453125 Z M 9.296875 -2.421875 C 10.015625 -2.421875 10.632812 -2.695312 11.15625 -3.25 C 11.675781 -3.8125 12.070312 -4.625 12.34375 -5.6875 C 12.625 -6.757812 12.765625 -8.039062 12.765625 -9.53125 C 12.765625 -11.132812 12.613281 -12.484375 12.3125 -13.578125 C 12.019531 -14.671875 11.613281 -15.492188 11.09375 -16.046875 C 10.570312 -16.609375 9.945312 -16.890625 9.21875 -16.890625 C 8.65625 -16.890625 8.148438 -16.726562 7.703125 -16.40625 C 7.253906 -16.082031 6.875 -15.65625 6.5625 -15.125 C 6.25 -14.59375 5.992188 -14.007812 5.796875 -13.375 C 5.597656 -12.738281 5.445312 -12.101562 5.34375 -11.46875 C 5.25 -10.84375 5.203125 -10.28125 5.203125 -9.78125 L 5.203125 -9.265625 C 5.203125 -8.515625 5.296875 -7.738281 5.484375 -6.9375 C 5.671875 -6.132812 5.929688 -5.390625 6.265625 -4.703125 C 6.597656 -4.023438 7.019531 -3.472656 7.53125 -3.046875 C 8.039062 -2.628906 8.628906 -2.421875 9.296875 -2.421875 Z M 9.296875 -2.421875 "/></g></g></g><g fill="#ff0000" fill-opacity="1"><g transform="translate(61.793308, 33.393278)"><g><path d="M 8.75 0.453125 C 7.382812 0.453125 6.21875 0.203125 5.25 -0.296875 C 4.28125 -0.796875 3.503906 -1.492188 2.921875 -2.390625 C 2.335938 -3.296875 1.910156 -4.34375 1.640625 -5.53125 C 1.367188 -6.726562 1.234375 -8.007812 1.234375 -9.375 C 1.234375 -10.8125 1.363281 -12.160156 1.625 -13.421875 C 1.882812 -14.691406 2.300781 -15.8125 2.875 -16.78125 C 3.457031 -17.75 4.210938 -18.503906 5.140625 -19.046875 C 6.078125 -19.585938 7.203125 -19.859375 8.515625 -19.859375 C 9.753906 -19.859375 10.804688 -19.617188 11.671875 -19.140625 C 12.546875 -18.660156 13.253906 -17.972656 13.796875 -17.078125 C 14.347656 -16.179688 14.726562 -15.113281 14.9375 -13.875 C 15.144531 -12.632812 15.1875 -11.257812 15.0625 -9.75 L 3.421875 -9.53125 L 3.421875 -11.6875 L 12.6875 -11.875 L 11.90625 -10.453125 C 12 -11.835938 11.925781 -13.019531 11.6875 -14 C 11.457031 -14.976562 11.082031 -15.722656 10.5625 -16.234375 C 10.039062 -16.742188 9.359375 -17 8.515625 -17 C 7.628906 -17 6.882812 -16.691406 6.28125 -16.078125 C 5.6875 -15.472656 5.242188 -14.613281 4.953125 -13.5 C 4.671875 -12.382812 4.53125 -11.097656 4.53125 -9.640625 C 4.53125 -7.234375 4.867188 -5.410156 5.546875 -4.171875 C 6.234375 -2.929688 7.3125 -2.3125 8.78125 -2.3125 C 9.445312 -2.3125 10.003906 -2.441406 10.453125 -2.703125 C 10.898438 -2.960938 11.257812 -3.3125 11.53125 -3.75 C 11.800781 -4.195312 11.992188 -4.707031 12.109375 -5.28125 C 12.222656 -5.851562 12.265625 -6.4375 12.234375 -7.03125 L 15.359375 -6.703125 C 15.359375 -5.804688 15.242188 -4.929688 15.015625 -4.078125 C 14.796875 -3.222656 14.421875 -2.453125 13.890625 -1.765625 C 13.359375 -1.085938 12.671875 -0.546875 11.828125 -0.140625 C 10.984375 0.253906 9.957031 0.453125 8.75 0.453125 Z M 8.75 0.453125 "/></g></g></g><g fill="#ff0000" fill-opacity="1"><g transform="translate(78.156537, 33.393278)"><g><path d="M 1.828125 0 L 1.828125 -25.515625 L 5.171875 -25.515625 L 5.171875 0 Z M 1.828125 0 "/></g></g></g><g fill="#ff0000" fill-opacity="1"><g transform="translate(85.1481, 33.393278)"><g/></g></g><g fill="#ff0000" fill-opacity="1"><g transform="translate(92.325608, 33.393278)"><g><path d="M 6.359375 0 L 6.359375 -24.546875 L 9.703125 -24.546875 L 9.703125 0 Z M 0.5625 -21.609375 L 0.5625 -24.546875 L 15.515625 -24.546875 L 15.515625 -21.609375 Z M 0.5625 -21.609375 "/></g></g></g><g fill="#ff0000" fill-opacity="1"><g transform="translate(108.391308, 33.393278)"><g><path d="M 1.828125 0 L 1.828125 -10 L 1.78125 -19.421875 L 4.90625 -19.421875 L 4.46875 -11.71875 L 4.90625 -11.71875 C 5.082031 -13.582031 5.394531 -15.109375 5.84375 -16.296875 C 6.289062 -17.484375 6.851562 -18.351562 7.53125 -18.90625 C 8.21875 -19.46875 8.984375 -19.75 9.828125 -19.75 C 10.046875 -19.75 10.265625 -19.726562 10.484375 -19.6875 C 10.710938 -19.65625 10.953125 -19.601562 11.203125 -19.53125 L 11.015625 -15.890625 C 10.785156 -15.984375 10.550781 -16.046875 10.3125 -16.078125 C 10.082031 -16.117188 9.859375 -16.140625 9.640625 -16.140625 C 8.796875 -16.140625 8.050781 -15.804688 7.40625 -15.140625 C 6.757812 -14.472656 6.25 -13.507812 5.875 -12.25 C 5.5 -11 5.273438 -9.46875 5.203125 -7.65625 L 5.203125 0 Z M 1.828125 0 "/></g></g></g><g fill="#ff0000" fill-opacity="1"><g transform="translate(119.994328, 33.393278)"><g><path d="M 5.65625 0.453125 C 4.832031 0.453125 4.066406 0.28125 3.359375 -0.0625 C 2.660156 -0.414062 2.09375 -0.960938 1.65625 -1.703125 C 1.21875 -2.453125 1 -3.421875 1 -4.609375 C 1 -5.648438 1.175781 -6.523438 1.53125 -7.234375 C 1.894531 -7.941406 2.394531 -8.523438 3.03125 -8.984375 C 3.664062 -9.441406 4.378906 -9.816406 5.171875 -10.109375 C 5.960938 -10.410156 6.78125 -10.6875 7.625 -10.9375 C 8.59375 -11.238281 9.335938 -11.488281 9.859375 -11.6875 C 10.378906 -11.882812 10.738281 -12.128906 10.9375 -12.421875 C 11.132812 -12.722656 11.234375 -13.117188 11.234375 -13.609375 C 11.234375 -14.253906 11.113281 -14.832031 10.875 -15.34375 C 10.644531 -15.851562 10.304688 -16.257812 9.859375 -16.5625 C 9.410156 -16.875 8.851562 -17.03125 8.1875 -17.03125 C 7.664062 -17.03125 7.132812 -16.90625 6.59375 -16.65625 C 6.0625 -16.414062 5.613281 -15.96875 5.25 -15.3125 C 4.894531 -14.65625 4.734375 -13.707031 4.765625 -12.46875 L 1.59375 -12.984375 C 1.59375 -14.273438 1.78125 -15.359375 2.15625 -16.234375 C 2.53125 -17.117188 3.03125 -17.828125 3.65625 -18.359375 C 4.289062 -18.890625 5.003906 -19.269531 5.796875 -19.5 C 6.597656 -19.738281 7.429688 -19.859375 8.296875 -19.859375 C 9.359375 -19.859375 10.28125 -19.695312 11.0625 -19.375 C 11.84375 -19.0625 12.488281 -18.582031 13 -17.9375 C 13.507812 -17.289062 13.894531 -16.515625 14.15625 -15.609375 C 14.414062 -14.703125 14.546875 -13.664062 14.546875 -12.5 L 14.546875 -8.265625 C 14.546875 -7.390625 14.554688 -6.476562 14.578125 -5.53125 C 14.609375 -4.59375 14.632812 -3.660156 14.65625 -2.734375 C 14.675781 -1.804688 14.703125 -0.894531 14.734375 0 L 11.640625 0 C 11.671875 -0.988281 11.695312 -1.976562 11.71875 -2.96875 C 11.738281 -3.96875 11.765625 -4.972656 11.796875 -5.984375 L 11.453125 -5.984375 C 11.234375 -4.648438 10.863281 -3.503906 10.34375 -2.546875 C 9.820312 -1.585938 9.171875 -0.847656 8.390625 -0.328125 C 7.609375 0.191406 6.695312 0.453125 5.65625 0.453125 Z M 6.65625 -2.34375 C 7.207031 -2.34375 7.726562 -2.503906 8.21875 -2.828125 C 8.71875 -3.148438 9.175781 -3.585938 9.59375 -4.140625 C 10.019531 -4.703125 10.375 -5.359375 10.65625 -6.109375 C 10.945312 -6.867188 11.140625 -7.6875 11.234375 -8.5625 L 11.234375 -10.640625 L 12.28125 -11.015625 C 12.03125 -10.640625 11.660156 -10.332031 11.171875 -10.09375 C 10.691406 -9.863281 10.144531 -9.65625 9.53125 -9.46875 C 8.925781 -9.28125 8.320312 -9.082031 7.71875 -8.875 C 7.113281 -8.664062 6.554688 -8.40625 6.046875 -8.09375 C 5.535156 -7.78125 5.117188 -7.378906 4.796875 -6.890625 C 4.472656 -6.410156 4.3125 -5.785156 4.3125 -5.015625 C 4.3125 -4.128906 4.53125 -3.460938 4.96875 -3.015625 C 5.40625 -2.566406 5.96875 -2.34375 6.65625 -2.34375 Z M 6.65625 -2.34375 "/></g></g></g><g fill="#ff0000" fill-opacity="1"><g transform="translate(136.20878, 33.393278)"><g><path d="M 1.828125 0 L 1.828125 -10.71875 L 1.78125 -19.421875 L 4.875 -19.421875 L 4.421875 -12.046875 L 4.84375 -12.046875 C 5.0625 -14.015625 5.425781 -15.566406 5.9375 -16.703125 C 6.445312 -17.847656 7.082031 -18.660156 7.84375 -19.140625 C 8.613281 -19.617188 9.484375 -19.859375 10.453125 -19.859375 C 11.273438 -19.859375 11.984375 -19.707031 12.578125 -19.40625 C 13.171875 -19.113281 13.648438 -18.6875 14.015625 -18.125 C 14.390625 -17.570312 14.6875 -16.941406 14.90625 -16.234375 C 15.132812 -15.523438 15.289062 -14.753906 15.375 -13.921875 C 15.46875 -13.097656 15.515625 -12.253906 15.515625 -11.390625 L 15.515625 0 L 12.125 0 L 12.125 -10.90625 C 12.125 -11.46875 12.101562 -12.085938 12.0625 -12.765625 C 12.03125 -13.453125 11.929688 -14.097656 11.765625 -14.703125 C 11.609375 -15.316406 11.335938 -15.820312 10.953125 -16.21875 C 10.566406 -16.613281 10.039062 -16.8125 9.375 -16.8125 C 8.476562 -16.8125 7.71875 -16.414062 7.09375 -15.625 C 6.476562 -14.832031 6.007812 -13.75 5.6875 -12.375 C 5.363281 -11 5.191406 -9.425781 5.171875 -7.65625 L 5.171875 0 Z M 1.828125 0 "/></g></g></g><g fill="#ff0000" fill-opacity="1"><g transform="translate(153.352963, 33.393278)"><g><path d="M 8 0.453125 C 6.726562 0.453125 5.640625 0.28125 4.734375 -0.0625 C 3.835938 -0.414062 3.109375 -0.914062 2.546875 -1.5625 C 1.992188 -2.207031 1.601562 -2.960938 1.375 -3.828125 C 1.15625 -4.703125 1.109375 -5.660156 1.234375 -6.703125 L 4.234375 -7.0625 C 4.160156 -6.070312 4.253906 -5.210938 4.515625 -4.484375 C 4.773438 -3.753906 5.203125 -3.195312 5.796875 -2.8125 C 6.398438 -2.425781 7.160156 -2.234375 8.078125 -2.234375 C 9.191406 -2.234375 10.039062 -2.46875 10.625 -2.9375 C 11.207031 -3.40625 11.5 -4.039062 11.5 -4.84375 C 11.5 -5.53125 11.316406 -6.09375 10.953125 -6.53125 C 10.597656 -6.96875 10.085938 -7.335938 9.421875 -7.640625 C 8.765625 -7.953125 8.003906 -8.269531 7.140625 -8.59375 C 6.421875 -8.863281 5.703125 -9.144531 4.984375 -9.4375 C 4.265625 -9.738281 3.625 -10.097656 3.0625 -10.515625 C 2.507812 -10.941406 2.066406 -11.472656 1.734375 -12.109375 C 1.398438 -12.742188 1.234375 -13.519531 1.234375 -14.4375 C 1.234375 -15.53125 1.484375 -16.484375 1.984375 -17.296875 C 2.492188 -18.117188 3.234375 -18.75 4.203125 -19.1875 C 5.171875 -19.632812 6.335938 -19.859375 7.703125 -19.859375 C 9.066406 -19.859375 10.242188 -19.601562 11.234375 -19.09375 C 12.222656 -18.59375 12.972656 -17.84375 13.484375 -16.84375 C 13.992188 -15.851562 14.1875 -14.613281 14.0625 -13.125 L 11.09375 -12.6875 C 11.164062 -13.550781 11.078125 -14.316406 10.828125 -14.984375 C 10.578125 -15.660156 10.175781 -16.191406 9.625 -16.578125 C 9.082031 -16.960938 8.40625 -17.15625 7.59375 -17.15625 C 6.644531 -17.15625 5.882812 -16.914062 5.3125 -16.4375 C 4.75 -15.96875 4.46875 -15.335938 4.46875 -14.546875 C 4.46875 -13.898438 4.648438 -13.363281 5.015625 -12.9375 C 5.390625 -12.519531 5.894531 -12.164062 6.53125 -11.875 C 7.164062 -11.59375 7.878906 -11.304688 8.671875 -11.015625 C 9.410156 -10.742188 10.140625 -10.453125 10.859375 -10.140625 C 11.578125 -9.828125 12.226562 -9.453125 12.8125 -9.015625 C 13.394531 -8.585938 13.859375 -8.035156 14.203125 -7.359375 C 14.554688 -6.691406 14.734375 -5.875 14.734375 -4.90625 C 14.734375 -3.820312 14.472656 -2.875 13.953125 -2.0625 C 13.429688 -1.257812 12.664062 -0.640625 11.65625 -0.203125 C 10.65625 0.234375 9.4375 0.453125 8 0.453125 Z M 8 0.453125 "/></g></g></g><g fill="#ff0000" fill-opacity="1"><g transform="translate(169.009577, 33.393278)"><g><path d="M 1.78125 5.28125 L 1.828125 -10.125 L 1.78125 -19.421875 L 4.875 -19.421875 L 4.53125 -13.609375 L 4.90625 -13.609375 C 5.15625 -15.054688 5.507812 -16.238281 5.96875 -17.15625 C 6.425781 -18.070312 7.003906 -18.75 7.703125 -19.1875 C 8.398438 -19.632812 9.191406 -19.859375 10.078125 -19.859375 C 11.296875 -19.859375 12.363281 -19.488281 13.28125 -18.75 C 14.195312 -18.007812 14.910156 -16.882812 15.421875 -15.375 C 15.929688 -13.875 16.1875 -12.007812 16.1875 -9.78125 C 16.1875 -7.53125 15.929688 -5.644531 15.421875 -4.125 C 14.910156 -2.613281 14.203125 -1.472656 13.296875 -0.703125 C 12.390625 0.0664062 11.351562 0.453125 10.1875 0.453125 C 9.175781 0.453125 8.316406 0.191406 7.609375 -0.328125 C 6.898438 -0.847656 6.328125 -1.609375 5.890625 -2.609375 C 5.460938 -3.617188 5.132812 -4.832031 4.90625 -6.25 L 4.46875 -6.21875 C 4.613281 -5.175781 4.734375 -4.210938 4.828125 -3.328125 C 4.929688 -2.453125 5.015625 -1.660156 5.078125 -0.953125 C 5.140625 -0.242188 5.171875 0.382812 5.171875 0.9375 L 5.171875 5.28125 Z M 9.21875 -2.53125 C 9.945312 -2.53125 10.570312 -2.800781 11.09375 -3.34375 C 11.613281 -3.894531 12.019531 -4.710938 12.3125 -5.796875 C 12.613281 -6.890625 12.765625 -8.242188 12.765625 -9.859375 C 12.765625 -11.398438 12.625 -12.691406 12.34375 -13.734375 C 12.070312 -14.773438 11.675781 -15.566406 11.15625 -16.109375 C 10.632812 -16.648438 10.003906 -16.921875 9.265625 -16.921875 C 8.617188 -16.921875 8.046875 -16.71875 7.546875 -16.3125 C 7.054688 -15.90625 6.632812 -15.363281 6.28125 -14.6875 C 5.9375 -14.019531 5.671875 -13.296875 5.484375 -12.515625 C 5.296875 -11.734375 5.203125 -10.972656 5.203125 -10.234375 L 5.203125 -9.671875 C 5.203125 -9.148438 5.25 -8.578125 5.34375 -7.953125 C 5.445312 -7.335938 5.597656 -6.707031 5.796875 -6.0625 C 5.992188 -5.414062 6.25 -4.828125 6.5625 -4.296875 C 6.875 -3.765625 7.253906 -3.335938 7.703125 -3.015625 C 8.148438 -2.691406 8.65625 -2.53125 9.21875 -2.53125 Z M 9.21875 -2.53125 "/></g></g></g><g fill="#ff0000" fill-opacity="1"><g transform="translate(186.414094, 33.393278)"><g><path d="M 8.703125 0.453125 C 7.140625 0.453125 5.800781 0.0664062 4.6875 -0.703125 C 3.570312 -1.472656 2.71875 -2.613281 2.125 -4.125 C 1.53125 -5.644531 1.234375 -7.503906 1.234375 -9.703125 C 1.234375 -11.984375 1.535156 -13.875 2.140625 -15.375 C 2.742188 -16.882812 3.601562 -18.007812 4.71875 -18.75 C 5.84375 -19.488281 7.160156 -19.859375 8.671875 -19.859375 C 10.203125 -19.859375 11.523438 -19.488281 12.640625 -18.75 C 13.765625 -18.007812 14.625 -16.878906 15.21875 -15.359375 C 15.8125 -13.847656 16.109375 -11.960938 16.109375 -9.703125 C 16.109375 -7.421875 15.8125 -5.53125 15.21875 -4.03125 C 14.625 -2.53125 13.765625 -1.40625 12.640625 -0.65625 C 11.523438 0.0820312 10.210938 0.453125 8.703125 0.453125 Z M 8.75 -2.3125 C 9.363281 -2.3125 9.910156 -2.460938 10.390625 -2.765625 C 10.878906 -3.078125 11.296875 -3.535156 11.640625 -4.140625 C 11.992188 -4.753906 12.257812 -5.519531 12.4375 -6.4375 C 12.625 -7.351562 12.71875 -8.421875 12.71875 -9.640625 C 12.71875 -10.921875 12.617188 -12.03125 12.421875 -12.96875 C 12.222656 -13.914062 11.941406 -14.691406 11.578125 -15.296875 C 11.222656 -15.910156 10.796875 -16.359375 10.296875 -16.640625 C 9.804688 -16.929688 9.25 -17.078125 8.625 -17.078125 C 8.03125 -17.078125 7.488281 -16.929688 7 -16.640625 C 6.519531 -16.359375 6.097656 -15.921875 5.734375 -15.328125 C 5.378906 -14.734375 5.101562 -13.976562 4.90625 -13.0625 C 4.707031 -12.144531 4.609375 -11.039062 4.609375 -9.75 C 4.609375 -8.53125 4.703125 -7.457031 4.890625 -6.53125 C 5.078125 -5.601562 5.347656 -4.828125 5.703125 -4.203125 C 6.066406 -3.585938 6.503906 -3.117188 7.015625 -2.796875 C 7.523438 -2.472656 8.101562 -2.3125 8.75 -2.3125 Z M 8.75 -2.3125 "/></g></g></g><g fill="#ff0000" fill-opacity="1"><g transform="translate(203.744223, 33.393278)"><g><path d="M 1.828125 0 L 1.828125 -10 L 1.78125 -19.421875 L 4.90625 -19.421875 L 4.46875 -11.71875 L 4.90625 -11.71875 C 5.082031 -13.582031 5.394531 -15.109375 5.84375 -16.296875 C 6.289062 -17.484375 6.851562 -18.351562 7.53125 -18.90625 C 8.21875 -19.46875 8.984375 -19.75 9.828125 -19.75 C 10.046875 -19.75 10.265625 -19.726562 10.484375 -19.6875 C 10.710938 -19.65625 10.953125 -19.601562 11.203125 -19.53125 L 11.015625 -15.890625 C 10.785156 -15.984375 10.550781 -16.046875 10.3125 -16.078125 C 10.082031 -16.117188 9.859375 -16.140625 9.640625 -16.140625 C 8.796875 -16.140625 8.050781 -15.804688 7.40625 -15.140625 C 6.757812 -14.472656 6.25 -13.507812 5.875 -12.25 C 5.5 -11 5.273438 -9.46875 5.203125 -7.65625 L 5.203125 0 Z M 1.828125 0 "/></g></g></g><g fill="#ff0000" fill-opacity="1"><g transform="translate(215.347242, 33.393278)"><g><path d="M 7.25 0.296875 C 6.457031 0.296875 5.769531 0.179688 5.1875 -0.046875 C 4.601562 -0.285156 4.117188 -0.628906 3.734375 -1.078125 C 3.347656 -1.523438 3.0625 -2.070312 2.875 -2.71875 C 2.695312 -3.363281 2.609375 -4.082031 2.609375 -4.875 L 2.609375 -16.625 L 0.484375 -16.625 L 0.484375 -19.234375 L 1.40625 -19.234375 C 2.132812 -19.253906 2.644531 -19.421875 2.9375 -19.734375 C 3.238281 -20.046875 3.410156 -20.523438 3.453125 -21.171875 L 3.71875 -23.4375 L 5.921875 -23.4375 L 5.921875 -19.421875 L 9.78125 -19.421875 L 9.78125 -16.59375 L 5.921875 -16.59375 L 5.921875 -5.359375 C 5.921875 -4.460938 6.085938 -3.820312 6.421875 -3.4375 C 6.753906 -3.050781 7.21875 -2.859375 7.8125 -2.859375 C 8.082031 -2.859375 8.40625 -2.898438 8.78125 -2.984375 C 9.15625 -3.078125 9.503906 -3.234375 9.828125 -3.453125 L 9.828125 -0.15625 C 9.378906 0 8.9375 0.113281 8.5 0.1875 C 8.0625 0.257812 7.644531 0.296875 7.25 0.296875 Z M 7.25 0.296875 "/></g></g></g><g fill="#ff0000" fill-opacity="1"><g transform="translate(226.094895, 33.393278)"><g/></g></g><g fill="#ff0000" fill-opacity="1"><g transform="translate(233.272403, 33.393278)"><g><path d="M 2.015625 0 L 2.015625 -24.546875 L 7.40625 -24.546875 L 13.0625 -3.3125 L 13.203125 -3.3125 L 18.78125 -24.546875 L 24 -24.546875 L 24 0 L 20.796875 0 L 20.875 -21.28125 L 20.71875 -21.28125 L 14.875 0 L 11.125 0 L 5.3125 -21.3125 L 5.171875 -21.3125 L 5.25 0 Z M 2.015625 0 "/></g></g></g><g fill="#ff0000" fill-opacity="1"><g transform="translate(259.267609, 33.393278)"><g><path d="M 8.703125 0.453125 C 7.140625 0.453125 5.800781 0.0664062 4.6875 -0.703125 C 3.570312 -1.472656 2.71875 -2.613281 2.125 -4.125 C 1.53125 -5.644531 1.234375 -7.503906 1.234375 -9.703125 C 1.234375 -11.984375 1.535156 -13.875 2.140625 -15.375 C 2.742188 -16.882812 3.601562 -18.007812 4.71875 -18.75 C 5.84375 -19.488281 7.160156 -19.859375 8.671875 -19.859375 C 10.203125 -19.859375 11.523438 -19.488281 12.640625 -18.75 C 13.765625 -18.007812 14.625 -16.878906 15.21875 -15.359375 C 15.8125 -13.847656 16.109375 -11.960938 16.109375 -9.703125 C 16.109375 -7.421875 15.8125 -5.53125 15.21875 -4.03125 C 14.625 -2.53125 13.765625 -1.40625 12.640625 -0.65625 C 11.523438 0.0820312 10.210938 0.453125 8.703125 0.453125 Z M 8.75 -2.3125 C 9.363281 -2.3125 9.910156 -2.460938 10.390625 -2.765625 C 10.878906 -3.078125 11.296875 -3.535156 11.640625 -4.140625 C 11.992188 -4.753906 12.257812 -5.519531 12.4375 -6.4375 C 12.625 -7.351562 12.71875 -8.421875 12.71875 -9.640625 C 12.71875 -10.921875 12.617188 -12.03125 12.421875 -12.96875 C 12.222656 -13.914062 11.941406 -14.691406 11.578125 -15.296875 C 11.222656 -15.910156 10.796875 -16.359375 10.296875 -16.640625 C 9.804688 -16.929688 9.25 -17.078125 8.625 -17.078125 C 8.03125 -17.078125 7.488281 -16.929688 7 -16.640625 C 6.519531 -16.359375 6.097656 -15.921875 5.734375 -15.328125 C 5.378906 -14.734375 5.101562 -13.976562 4.90625 -13.0625 C 4.707031 -12.144531 4.609375 -11.039062 4.609375 -9.75 C 4.609375 -8.53125 4.703125 -7.457031 4.890625 -6.53125 C 5.078125 -5.601562 5.347656 -4.828125 5.703125 -4.203125 C 6.066406 -3.585938 6.503906 -3.117188 7.015625 -2.796875 C 7.523438 -2.472656 8.101562 -2.3125 8.75 -2.3125 Z M 8.75 -2.3125 "/></g></g></g><g fill="#ff0000" fill-opacity="1"><g transform="translate(276.597738, 33.393278)"><g><path d="M 1.828125 0 L 1.828125 -10.71875 L 1.78125 -19.421875 L 4.875 -19.421875 L 4.421875 -12.046875 L 4.84375 -12.046875 C 5.0625 -14.015625 5.425781 -15.566406 5.9375 -16.703125 C 6.445312 -17.847656 7.082031 -18.660156 7.84375 -19.140625 C 8.613281 -19.617188 9.484375 -19.859375 10.453125 -19.859375 C 11.273438 -19.859375 11.984375 -19.707031 12.578125 -19.40625 C 13.171875 -19.113281 13.648438 -18.6875 14.015625 -18.125 C 14.390625 -17.570312 14.6875 -16.941406 14.90625 -16.234375 C 15.132812 -15.523438 15.289062 -14.753906 15.375 -13.921875 C 15.46875 -13.097656 15.515625 -12.253906 15.515625 -11.390625 L 15.515625 0 L 12.125 0 L 12.125 -10.90625 C 12.125 -11.46875 12.101562 -12.085938 12.0625 -12.765625 C 12.03125 -13.453125 11.929688 -14.097656 11.765625 -14.703125 C 11.609375 -15.316406 11.335938 -15.820312 10.953125 -16.21875 C 10.566406 -16.613281 10.039062 -16.8125 9.375 -16.8125 C 8.476562 -16.8125 7.71875 -16.414062 7.09375 -15.625 C 6.476562 -14.832031 6.007812 -13.75 5.6875 -12.375 C 5.363281 -11 5.191406 -9.425781 5.171875 -7.65625 L 5.171875 0 Z M 1.828125 0 "/></g></g></g><g fill="#ff0000" fill-opacity="1"><g transform="translate(293.74192, 33.393278)"><g><path d="M 7.25 0.296875 C 6.457031 0.296875 5.769531 0.179688 5.1875 -0.046875 C 4.601562 -0.285156 4.117188 -0.628906 3.734375 -1.078125 C 3.347656 -1.523438 3.0625 -2.070312 2.875 -2.71875 C 2.695312 -3.363281 2.609375 -4.082031 2.609375 -4.875 L 2.609375 -16.625 L 0.484375 -16.625 L 0.484375 -19.234375 L 1.40625 -19.234375 C 2.132812 -19.253906 2.644531 -19.421875 2.9375 -19.734375 C 3.238281 -20.046875 3.410156 -20.523438 3.453125 -21.171875 L 3.71875 -23.4375 L 5.921875 -23.4375 L 5.921875 -19.421875 L 9.78125 -19.421875 L 9.78125 -16.59375 L 5.921875 -16.59375 L 5.921875 -5.359375 C 5.921875 -4.460938 6.085938 -3.820312 6.421875 -3.4375 C 6.753906 -3.050781 7.21875 -2.859375 7.8125 -2.859375 C 8.082031 -2.859375 8.40625 -2.898438 8.78125 -2.984375 C 9.15625 -3.078125 9.503906 -3.234375 9.828125 -3.453125 L 9.828125 -0.15625 C 9.378906 0 8.9375 0.113281 8.5 0.1875 C 8.0625 0.257812 7.644531 0.296875 7.25 0.296875 Z M 7.25 0.296875 "/></g></g></g><g fill="#ff0000" fill-opacity="1"><g transform="translate(304.489573, 33.393278)"><g><path d="M 5.65625 0.453125 C 4.832031 0.453125 4.066406 0.28125 3.359375 -0.0625 C 2.660156 -0.414062 2.09375 -0.960938 1.65625 -1.703125 C 1.21875 -2.453125 1 -3.421875 1 -4.609375 C 1 -5.648438 1.175781 -6.523438 1.53125 -7.234375 C 1.894531 -7.941406 2.394531 -8.523438 3.03125 -8.984375 C 3.664062 -9.441406 4.378906 -9.816406 5.171875 -10.109375 C 5.960938 -10.410156 6.78125 -10.6875 7.625 -10.9375 C 8.59375 -11.238281 9.335938 -11.488281 9.859375 -11.6875 C 10.378906 -11.882812 10.738281 -12.128906 10.9375 -12.421875 C 11.132812 -12.722656 11.234375 -13.117188 11.234375 -13.609375 C 11.234375 -14.253906 11.113281 -14.832031 10.875 -15.34375 C 10.644531 -15.851562 10.304688 -16.257812 9.859375 -16.5625 C 9.410156 -16.875 8.851562 -17.03125 8.1875 -17.03125 C 7.664062 -17.03125 7.132812 -16.90625 6.59375 -16.65625 C 6.0625 -16.414062 5.613281 -15.96875 5.25 -15.3125 C 4.894531 -14.65625 4.734375 -13.707031 4.765625 -12.46875 L 1.59375 -12.984375 C 1.59375 -14.273438 1.78125 -15.359375 2.15625 -16.234375 C 2.53125 -17.117188 3.03125 -17.828125 3.65625 -18.359375 C 4.289062 -18.890625 5.003906 -19.269531 5.796875 -19.5 C 6.597656 -19.738281 7.429688 -19.859375 8.296875 -19.859375 C 9.359375 -19.859375 10.28125 -19.695312 11.0625 -19.375 C 11.84375 -19.0625 12.488281 -18.582031 13 -17.9375 C 13.507812 -17.289062 13.894531 -16.515625 14.15625 -15.609375 C 14.414062 -14.703125 14.546875 -13.664062 14.546875 -12.5 L 14.546875 -8.265625 C 14.546875 -7.390625 14.554688 -6.476562 14.578125 -5.53125 C 14.609375 -4.59375 14.632812 -3.660156 14.65625 -2.734375 C 14.675781 -1.804688 14.703125 -0.894531 14.734375 0 L 11.640625 0 C 11.671875 -0.988281 11.695312 -1.976562 11.71875 -2.96875 C 11.738281 -3.96875 11.765625 -4.972656 11.796875 -5.984375 L 11.453125 -5.984375 C 11.234375 -4.648438 10.863281 -3.503906 10.34375 -2.546875 C 9.820312 -1.585938 9.171875 -0.847656 8.390625 -0.328125 C 7.609375 0.191406 6.695312 0.453125 5.65625 0.453125 Z M 6.65625 -2.34375 C 7.207031 -2.34375 7.726562 -2.503906 8.21875 -2.828125 C 8.71875 -3.148438 9.175781 -3.585938 9.59375 -4.140625 C 10.019531 -4.703125 10.375 -5.359375 10.65625 -6.109375 C 10.945312 -6.867188 11.140625 -7.6875 11.234375 -8.5625 L 11.234375 -10.640625 L 12.28125 -11.015625 C 12.03125 -10.640625 11.660156 -10.332031 11.171875 -10.09375 C 10.691406 -9.863281 10.144531 -9.65625 9.53125 -9.46875 C 8.925781 -9.28125 8.320312 -9.082031 7.71875 -8.875 C 7.113281 -8.664062 6.554688 -8.40625 6.046875 -8.09375 C 5.535156 -7.78125 5.117188 -7.378906 4.796875 -6.890625 C 4.472656 -6.410156 4.3125 -5.785156 4.3125 -5.015625 C 4.3125 -4.128906 4.53125 -3.460938 4.96875 -3.015625 C 5.40625 -2.566406 5.96875 -2.34375 6.65625 -2.34375 Z M 6.65625 -2.34375 "/></g></g></g><g fill="#ff0000" fill-opacity="1"><g transform="translate(320.704025, 33.393278)"><g><path d="M 7.84375 5.734375 C 6.207031 5.734375 4.867188 5.5625 3.828125 5.21875 C 2.785156 4.882812 2.019531 4.414062 1.53125 3.8125 C 1.050781 3.207031 0.8125 2.492188 0.8125 1.671875 C 0.8125 0.609375 1.210938 -0.273438 2.015625 -0.984375 C 2.828125 -1.691406 3.988281 -2.179688 5.5 -2.453125 L 5.5 -2.90625 C 4.332031 -2.875 3.453125 -3.019531 2.859375 -3.34375 C 2.265625 -3.664062 1.96875 -4.148438 1.96875 -4.796875 C 1.96875 -5.441406 2.253906 -5.96875 2.828125 -6.375 C 3.398438 -6.789062 4.289062 -7.144531 5.5 -7.4375 L 5.5 -7.890625 C 4.164062 -8.054688 3.144531 -8.617188 2.4375 -9.578125 C 1.726562 -10.535156 1.375 -11.707031 1.375 -13.09375 C 1.375 -14.363281 1.660156 -15.472656 2.234375 -16.421875 C 2.804688 -17.378906 3.617188 -18.125 4.671875 -18.65625 C 5.722656 -19.1875 6.96875 -19.453125 8.40625 -19.453125 L 16.140625 -19.453125 L 16.140625 -16.59375 L 10.71875 -17.40625 L 10.71875 -17 C 12.125 -16.707031 13.15625 -16.160156 13.8125 -15.359375 C 14.476562 -14.566406 14.8125 -13.585938 14.8125 -12.421875 C 14.8125 -11.378906 14.554688 -10.4375 14.046875 -9.59375 C 13.535156 -8.75 12.789062 -8.082031 11.8125 -7.59375 C 10.832031 -7.113281 9.648438 -6.875 8.265625 -6.875 C 7.960938 -6.875 7.648438 -6.882812 7.328125 -6.90625 C 7.003906 -6.9375 6.671875 -7.003906 6.328125 -7.109375 C 5.679688 -6.753906 5.210938 -6.425781 4.921875 -6.125 C 4.640625 -5.832031 4.5 -5.578125 4.5 -5.359375 C 4.5 -5.128906 4.609375 -4.960938 4.828125 -4.859375 C 5.054688 -4.765625 5.347656 -4.707031 5.703125 -4.6875 C 6.066406 -4.664062 6.445312 -4.65625 6.84375 -4.65625 L 10.34375 -4.65625 C 10.71875 -4.65625 11.238281 -4.625 11.90625 -4.5625 C 12.570312 -4.5 13.257812 -4.320312 13.96875 -4.03125 C 14.675781 -3.75 15.273438 -3.289062 15.765625 -2.65625 C 16.265625 -2.03125 16.515625 -1.144531 16.515625 0 C 16.515625 1.34375 16.15625 2.425781 15.4375 3.25 C 14.71875 4.082031 13.710938 4.703125 12.421875 5.109375 C 11.128906 5.523438 9.601562 5.734375 7.84375 5.734375 Z M 7.890625 2.796875 C 9.203125 2.796875 10.257812 2.679688 11.0625 2.453125 C 11.875 2.234375 12.457031 1.90625 12.8125 1.46875 C 13.175781 1.03125 13.359375 0.515625 13.359375 -0.078125 C 13.359375 -0.648438 13.234375 -1.085938 12.984375 -1.390625 C 12.734375 -1.703125 12.410156 -1.921875 12.015625 -2.046875 C 11.617188 -2.171875 11.203125 -2.25 10.765625 -2.28125 C 10.335938 -2.320312 9.9375 -2.34375 9.5625 -2.34375 L 6.703125 -2.34375 C 5.609375 -1.894531 4.84375 -1.4375 4.40625 -0.96875 C 3.96875 -0.5 3.75 0.03125 3.75 0.625 C 3.75 1.226562 3.929688 1.679688 4.296875 1.984375 C 4.660156 2.296875 5.15625 2.507812 5.78125 2.625 C 6.414062 2.738281 7.117188 2.796875 7.890625 2.796875 Z M 8.21875 -9.15625 C 9.289062 -9.15625 10.113281 -9.5 10.6875 -10.1875 C 11.269531 -10.882812 11.5625 -11.804688 11.5625 -12.953125 C 11.5625 -14.140625 11.257812 -15.097656 10.65625 -15.828125 C 10.050781 -16.554688 9.210938 -16.921875 8.140625 -16.921875 C 7.078125 -16.921875 6.234375 -16.554688 5.609375 -15.828125 C 4.992188 -15.097656 4.6875 -14.160156 4.6875 -13.015625 C 4.6875 -12.253906 4.832031 -11.582031 5.125 -11 C 5.425781 -10.414062 5.835938 -9.960938 6.359375 -9.640625 C 6.878906 -9.316406 7.5 -9.15625 8.21875 -9.15625 Z M 8.21875 -9.15625 "/></g></g></g><g fill="#ff0000" fill-opacity="1"><g transform="translate(337.885402, 33.393278)"><g><path d="M 8.75 0.453125 C 7.382812 0.453125 6.21875 0.203125 5.25 -0.296875 C 4.28125 -0.796875 3.503906 -1.492188 2.921875 -2.390625 C 2.335938 -3.296875 1.910156 -4.34375 1.640625 -5.53125 C 1.367188 -6.726562 1.234375 -8.007812 1.234375 -9.375 C 1.234375 -10.8125 1.363281 -12.160156 1.625 -13.421875 C 1.882812 -14.691406 2.300781 -15.8125 2.875 -16.78125 C 3.457031 -17.75 4.210938 -18.503906 5.140625 -19.046875 C 6.078125 -19.585938 7.203125 -19.859375 8.515625 -19.859375 C 9.753906 -19.859375 10.804688 -19.617188 11.671875 -19.140625 C 12.546875 -18.660156 13.253906 -17.972656 13.796875 -17.078125 C 14.347656 -16.179688 14.726562 -15.113281 14.9375 -13.875 C 15.144531 -12.632812 15.1875 -11.257812 15.0625 -9.75 L 3.421875 -9.53125 L 3.421875 -11.6875 L 12.6875 -11.875 L 11.90625 -10.453125 C 12 -11.835938 11.925781 -13.019531 11.6875 -14 C 11.457031 -14.976562 11.082031 -15.722656 10.5625 -16.234375 C 10.039062 -16.742188 9.359375 -17 8.515625 -17 C 7.628906 -17 6.882812 -16.691406 6.28125 -16.078125 C 5.6875 -15.472656 5.242188 -14.613281 4.953125 -13.5 C 4.671875 -12.382812 4.53125 -11.097656 4.53125 -9.640625 C 4.53125 -7.234375 4.867188 -5.410156 5.546875 -4.171875 C 6.234375 -2.929688 7.3125 -2.3125 8.78125 -2.3125 C 9.445312 -2.3125 10.003906 -2.441406 10.453125 -2.703125 C 10.898438 -2.960938 11.257812 -3.3125 11.53125 -3.75 C 11.800781 -4.195312 11.992188 -4.707031 12.109375 -5.28125 C 12.222656 -5.851562 12.265625 -6.4375 12.234375 -7.03125 L 15.359375 -6.703125 C 15.359375 -5.804688 15.242188 -4.929688 15.015625 -4.078125 C 14.796875 -3.222656 14.421875 -2.453125 13.890625 -1.765625 C 13.359375 -1.085938 12.671875 -0.546875 11.828125 -0.140625 C 10.984375 0.253906 9.957031 0.453125 8.75 0.453125 Z M 8.75 0.453125 "/></g></g></g></g></g></svg>